<svg xmlns="http://www.w3.org/2000/svg" viewBox="0 0 1280 640" width="1280" height="640" role="img" aria-label="Fuery - Server state for Flutter">
  <!-- GitHub social preview. Upload the PNG in the repository settings. -->
  <rect width="1280" height="640" fill="#14112B"/>
  <g fill="#6B4EFF" opacity="0.08">
    <rect x="910" y="-60" width="132" height="132" rx="34"/>
    <rect x="1060" y="-60" width="132" height="132" rx="34"/>
    <rect x="1210" y="-60" width="132" height="132" rx="34"/>
    <rect x="1060" y="90" width="132" height="132" rx="34"/>
    <rect x="1210" y="90" width="132" height="132" rx="34"/>
    <rect x="1210" y="240" width="132" height="132" rx="34"/>
    <rect x="-60" y="568" width="132" height="132" rx="34"/>
    <rect x="90" y="568" width="132" height="132" rx="34"/>
    <rect x="240" y="568" width="132" height="132" rx="34"/>
  </g>
  <g transform="translate(150 200) scale(0.46875)">
    <rect x="40" y="40" width="132" height="432" rx="34" fill="#6B4EFF"/>
    <rect x="190" y="40" width="282" height="132" rx="34" fill="#6B4EFF"/>
    <rect x="190" y="190" width="132" height="132" rx="34" fill="#6B4EFF" opacity="0.4"/>
    <rect x="274" y="190" width="132" height="132" rx="34" fill="#C6F542"/>
  </g>
  <g font-family="Inter, 'Helvetica Neue', Arial, sans-serif">
    <text x="440" y="312" font-size="136" font-weight="700" letter-spacing="-5" fill="#FFFFFF">Fuery</text>
    <text x="446" y="378" font-size="40" font-weight="500" fill="#C9BEFF">Server state for Flutter</text>
    <text x="446" y="432" font-size="22" font-weight="400" fill="#FFFFFF" opacity="0.55">Caching · Background refetching · Mutations · Infinite queries</text>
  </g>
</svg>
